<mxfile host="app.diagrams.net" agent="Mozilla/5.0 (Windows NT 10.0; Win64; x64) AppleWebKit/537.36 (KHTML, like Gecko) Chrome/136.0.0.0 Safari/537.36" version="27.0.9">
  <diagram name="Página-1" id="4X94Ythc9nH6U7lY3HMQ">
    <mxGraphModel dx="705" dy="793" grid="1" gridSize="10" guides="1" tooltips="1" connect="1" arrows="1" fold="1" page="1" pageScale="1" pageWidth="827" pageHeight="1169" math="0" shadow="0">
      <root>
        <mxCell id="0" />
        <mxCell id="1" parent="0" />
        <mxCell id="ZRGz6ruVbDWSYw1AZYDS-1" value="Requisitos" style="rounded=0;whiteSpace=wrap;html=1;" parent="1" vertex="1">
          <mxGeometry x="130" y="50" width="120" height="110" as="geometry" />
        </mxCell>
        <mxCell id="ZRGz6ruVbDWSYw1AZYDS-3" value="" style="endArrow=none;html=1;rounded=0;" parent="1" edge="1">
          <mxGeometry width="50" height="50" relative="1" as="geometry">
            <mxPoint x="250" y="100" as="sourcePoint" />
            <mxPoint x="300" y="100" as="targetPoint" />
          </mxGeometry>
        </mxCell>
        <mxCell id="ZRGz6ruVbDWSYw1AZYDS-5" value="" style="endArrow=classic;html=1;rounded=0;" parent="1" edge="1">
          <mxGeometry width="50" height="50" relative="1" as="geometry">
            <mxPoint x="300" y="100" as="sourcePoint" />
            <mxPoint x="300" y="180" as="targetPoint" />
          </mxGeometry>
        </mxCell>
        <mxCell id="ZRGz6ruVbDWSYw1AZYDS-6" value="Diseño" style="rounded=0;whiteSpace=wrap;html=1;" parent="1" vertex="1">
          <mxGeometry x="240" y="180" width="120" height="110" as="geometry" />
        </mxCell>
        <mxCell id="ZRGz6ruVbDWSYw1AZYDS-7" value="" style="endArrow=none;html=1;rounded=0;" parent="1" edge="1">
          <mxGeometry width="50" height="50" relative="1" as="geometry">
            <mxPoint x="360" y="230" as="sourcePoint" />
            <mxPoint x="410" y="230" as="targetPoint" />
          </mxGeometry>
        </mxCell>
        <mxCell id="ZRGz6ruVbDWSYw1AZYDS-8" value="" style="endArrow=classic;html=1;rounded=0;" parent="1" edge="1">
          <mxGeometry width="50" height="50" relative="1" as="geometry">
            <mxPoint x="410" y="230" as="sourcePoint" />
            <mxPoint x="410" y="310" as="targetPoint" />
          </mxGeometry>
        </mxCell>
        <mxCell id="ZRGz6ruVbDWSYw1AZYDS-9" value="Desarrollo" style="rounded=0;whiteSpace=wrap;html=1;" parent="1" vertex="1">
          <mxGeometry x="350" y="310" width="120" height="110" as="geometry" />
        </mxCell>
        <mxCell id="ZRGz6ruVbDWSYw1AZYDS-10" value="" style="endArrow=none;html=1;rounded=0;" parent="1" edge="1">
          <mxGeometry width="50" height="50" relative="1" as="geometry">
            <mxPoint x="470" y="360" as="sourcePoint" />
            <mxPoint x="520" y="360" as="targetPoint" />
          </mxGeometry>
        </mxCell>
        <mxCell id="ZRGz6ruVbDWSYw1AZYDS-11" value="" style="endArrow=classic;html=1;rounded=0;" parent="1" edge="1">
          <mxGeometry width="50" height="50" relative="1" as="geometry">
            <mxPoint x="520" y="360" as="sourcePoint" />
            <mxPoint x="520" y="440" as="targetPoint" />
          </mxGeometry>
        </mxCell>
        <mxCell id="ZRGz6ruVbDWSYw1AZYDS-12" value="Pruebas" style="rounded=0;whiteSpace=wrap;html=1;" parent="1" vertex="1">
          <mxGeometry x="460" y="440" width="120" height="110" as="geometry" />
        </mxCell>
        <mxCell id="ZRGz6ruVbDWSYw1AZYDS-13" value="" style="endArrow=none;html=1;rounded=0;" parent="1" edge="1">
          <mxGeometry width="50" height="50" relative="1" as="geometry">
            <mxPoint x="580" y="490" as="sourcePoint" />
            <mxPoint x="630" y="490" as="targetPoint" />
          </mxGeometry>
        </mxCell>
        <mxCell id="ZRGz6ruVbDWSYw1AZYDS-14" value="" style="endArrow=classic;html=1;rounded=0;" parent="1" edge="1">
          <mxGeometry width="50" height="50" relative="1" as="geometry">
            <mxPoint x="630" y="490" as="sourcePoint" />
            <mxPoint x="630" y="570" as="targetPoint" />
          </mxGeometry>
        </mxCell>
        <mxCell id="ZRGz6ruVbDWSYw1AZYDS-15" value="Cronograma" style="rounded=0;whiteSpace=wrap;html=1;" parent="1" vertex="1">
          <mxGeometry x="570" y="570" width="120" height="110" as="geometry" />
        </mxCell>
        <mxCell id="ZRGz6ruVbDWSYw1AZYDS-18" value="&lt;font style=&quot;font-size: 18px;&quot; face=&quot;Garamond&quot;&gt;&lt;i&gt;&lt;b&gt;Diagrama de Cascada&lt;/b&gt;&lt;/i&gt;&lt;/font&gt;" style="ellipse;shape=cloud;whiteSpace=wrap;html=1;fillColor=#AC0000;" parent="1" vertex="1">
          <mxGeometry x="460" y="40" width="230" height="160" as="geometry" />
        </mxCell>
        <mxCell id="ZRGz6ruVbDWSYw1AZYDS-19" value="" style="endArrow=classic;html=1;rounded=0;" parent="1" edge="1">
          <mxGeometry width="50" height="50" relative="1" as="geometry">
            <mxPoint x="130" y="160" as="sourcePoint" />
            <mxPoint x="130" y="220" as="targetPoint" />
          </mxGeometry>
        </mxCell>
        <mxCell id="ZRGz6ruVbDWSYw1AZYDS-20" value="" style="endArrow=classic;html=1;rounded=0;" parent="1" edge="1">
          <mxGeometry width="50" height="50" relative="1" as="geometry">
            <mxPoint x="240" y="290" as="sourcePoint" />
            <mxPoint x="240" y="410" as="targetPoint" />
          </mxGeometry>
        </mxCell>
        <mxCell id="ZRGz6ruVbDWSYw1AZYDS-21" value="" style="endArrow=classic;html=1;rounded=0;" parent="1" edge="1">
          <mxGeometry width="50" height="50" relative="1" as="geometry">
            <mxPoint x="350" y="420" as="sourcePoint" />
            <mxPoint x="350" y="540" as="targetPoint" />
          </mxGeometry>
        </mxCell>
        <mxCell id="ZRGz6ruVbDWSYw1AZYDS-22" value="" style="endArrow=classic;html=1;rounded=0;" parent="1" edge="1">
          <mxGeometry width="50" height="50" relative="1" as="geometry">
            <mxPoint x="460" y="550" as="sourcePoint" />
            <mxPoint x="460" y="670" as="targetPoint" />
          </mxGeometry>
        </mxCell>
        <mxCell id="ZRGz6ruVbDWSYw1AZYDS-23" value="" style="endArrow=classic;html=1;rounded=0;" parent="1" edge="1">
          <mxGeometry width="50" height="50" relative="1" as="geometry">
            <mxPoint x="570" y="680" as="sourcePoint" />
            <mxPoint x="570" y="800" as="targetPoint" />
          </mxGeometry>
        </mxCell>
        <mxCell id="ZRGz6ruVbDWSYw1AZYDS-25" value="" style="rounded=0;whiteSpace=wrap;html=1;" parent="1" vertex="1">
          <mxGeometry x="510" y="800" width="120" height="110" as="geometry" />
        </mxCell>
        <mxCell id="ZRGz6ruVbDWSYw1AZYDS-26" value="Pruebas Unitarias.&lt;div&gt;Pruebas de Integración.&lt;/div&gt;&lt;div&gt;Pruebas funcionales.&lt;/div&gt;&lt;div&gt;Pruebas de Rendimiento.&lt;/div&gt;&lt;div&gt;&lt;span style=&quot;white-space: pre;&quot;&gt;&#x9;&lt;/span&gt;Pruebas de Usuario.&lt;br&gt;&lt;/div&gt;" style="rounded=0;whiteSpace=wrap;html=1;" parent="1" vertex="1">
          <mxGeometry x="390" y="670" width="160" height="110" as="geometry" />
        </mxCell>
        <mxCell id="ZRGz6ruVbDWSYw1AZYDS-27" value="&lt;div style=&quot;text-align: justify;&quot;&gt;Definición de objetivos.&lt;/div&gt;&lt;div style=&quot;text-align: justify;&quot;&gt;Uso de Diagrama de Cascada para el ordenamiento del proyecto paso a paso.&lt;/div&gt;&lt;div style=&quot;text-align: justify;&quot;&gt;Diseñar un programa capaz de ofrecer opciones de vuelo.&lt;/div&gt;&lt;div style=&quot;text-align: justify;&quot;&gt;Implementar grafos.&lt;/div&gt;&lt;div style=&quot;text-align: justify;&quot;&gt;Implementación de algoritmos de búsqueda DFS.&lt;/div&gt;&lt;div style=&quot;text-align: justify;&quot;&gt;Presentación del proyecto técnico mediante presentaciones en pdf y Power Point.&lt;/div&gt;" style="rounded=0;whiteSpace=wrap;html=1;" parent="1" vertex="1">
          <mxGeometry x="90" y="540" width="320" height="120" as="geometry" />
        </mxCell>
        <mxCell id="ZRGz6ruVbDWSYw1AZYDS-28" value="&lt;div style=&quot;text-align: justify;&quot;&gt;&lt;span style=&quot;background-color: transparent; color: light-dark(rgb(0, 0, 0), rgb(255, 255, 255));&quot;&gt;Presentación en VSC.&lt;/span&gt;&lt;/div&gt;&lt;div style=&quot;text-align: justify;&quot;&gt;Documentación en archivos .pdf,.dox,.pptx.&lt;/div&gt;&lt;div&gt;&lt;br&gt;&lt;/div&gt;" style="rounded=0;whiteSpace=wrap;html=1;" parent="1" vertex="1">
          <mxGeometry x="180" y="410" width="120" height="110" as="geometry" />
        </mxCell>
        <mxCell id="ZRGz6ruVbDWSYw1AZYDS-29" value="&lt;div style=&quot;text-align: justify;&quot;&gt;&lt;span style=&quot;background-color: transparent; color: light-dark(rgb(0, 0, 0), rgb(255, 255, 255));&quot;&gt;Interacción con el usuario.&lt;/span&gt;&lt;/div&gt;&lt;div style=&quot;text-align: justify;&quot;&gt;Programa capaz de realizar cálculos en función del presupuesto.&lt;/div&gt;&lt;div style=&quot;text-align: justify;&quot;&gt;Uso de grafos.&lt;/div&gt;&lt;div style=&quot;text-align: justify;&quot;&gt;Uso de algoritmos de búsqueda.&lt;/div&gt;&lt;div style=&quot;text-align: justify;&quot;&gt;&lt;br&gt;&lt;/div&gt;" style="rounded=0;whiteSpace=wrap;html=1;" parent="1" vertex="1">
          <mxGeometry x="30" y="220" width="190" height="170" as="geometry" />
        </mxCell>
      </root>
    </mxGraphModel>
  </diagram>
</mxfile>
